<svg xmlns="http://www.w3.org/2000/svg" xmlns:xlink="http://www.w3.org/1999/xlink" viewBox="0 0 404 264"><defs><style>.cls-1{fill:none;}.cls-2{fill:#303040;}.cls-3{fill:url(#s2);}.cls-4{fill:#fff;}.cls-5{fill:#ceced9;}.cls-6{fill:#7e7e95;}.cls-7{fill:#9292a6;}.cls-8{fill:#e6e6f2;}.cls-9{fill:#30303c;}.cls-10{fill:url(#s3);}.cls-11{fill:url(#s1);}.cls-12{fill:#bebecc;}</style><linearGradient id="s2" x1="-102.51" y1="528" x2="-101.92" y2="526.54" gradientTransform="matrix(281.37, 0, 0, -191.99, 28938.64, 101340.29)" gradientUnits="userSpaceOnUse"><stop offset="0" stop-color="#9673ff"/><stop offset="0.5" stop-color="#c399ff"/><stop offset="1" stop-color="#fcf"/></linearGradient><radialGradient id="s3" cx="-87.24" cy="516.08" r="0.86" gradientTransform="matrix(6.72, 0, 0, -21.29, 775.99, 11162.69)" gradientUnits="userSpaceOnUse"><stop offset="0" stop-color="#aaecf2"/><stop offset="1" stop-color="#00eaff"/></radialGradient><radialGradient id="s1" cx="-81.25" cy="516.23" r="0.86" gradientTransform="matrix(4.83, 0, 0, -21.55, 587.12, 11300.52)" xlink:href="#s3"/></defs><path  class="cls-1" d="M0,0H404V264H0Z"/><path  class="cls-2" d="M284.08,54.57a24.8,24.8,0,0,1,4.13-.2l0,1.58a22.71,22.71,0,0,0-3.87.18Zm8.19.22a38.67,38.67,0,0,1,4,.87l-.41,1.52c-1.26-.34-2.54-.62-3.83-.84Zm-15.92,2.73a16,16,0,0,1,3.7-2l.55,1.48a14.07,14.07,0,0,0-3.34,1.77Zm23.78-.64c1.24.44,2.49.94,3.75,1.49l-.63,1.45c-1.23-.53-2.45-1-3.66-1.46Zm7.4,3.2c1.18.6,2.36,1.24,3.55,1.91l-.78,1.38c-1.17-.66-2.33-1.29-3.49-1.87Zm-35.49,2a17.27,17.27,0,0,1,1.25-1.7l1.21,1c-.4.5-.78,1-1.13,1.55l-.66-.42.66.42c-.36.56-.74,1.1-1.15,1.62l-1.24-1c.38-.49.74-1,1.07-1.51Zm42.5,2c1.13.7,2.25,1.44,3.37,2.21l-.9,1.3c-1.1-.76-2.2-1.48-3.31-2.18Zm-49,4.5a26.65,26.65,0,0,0,2.92-2.28l1.06,1.17a26.77,26.77,0,0,1-3.09,2.42Zm55.62.06c1.07.8,2.13,1.62,3.17,2.47l-1,1.23c-1-.84-2.07-1.65-3.13-2.44Zm-62.24,3.44c1.16-.48,2.3-1,3.41-1.59l.74,1.4q-1.74.9-3.54,1.65Zm-7.14,2.42c1.21-.34,2.42-.71,3.62-1.1l.5,1.5c-1.2.4-2.44.77-3.7,1.12Zm75.63-.8c1,.88,2,1.78,3,2.7l-1.08,1.15c-1-.91-1.94-1.79-2.94-2.67Zm-83,2.52c1.26-.25,2.5-.51,3.71-.8l.36,1.54c-1.24.29-2.49.56-3.77.81Zm-7.51,1.31c1.26-.19,2.52-.4,3.76-.61l.27,1.56-3.79.62Zm-7.57,1.08,3.79-.52.22,1.57-3.8.52Zm-4.7.62.91-.12.21,1.57-.92.12-2.87.37-.21-1.57,2.88-.37Zm108.66,0c.95,1,1.87,1.94,2.76,2.93l-1.17,1.06c-.88-1-1.79-1.94-2.72-2.89ZM214.15,80.64c1.27-.19,2.53-.37,3.8-.54l.22,1.56-3.79.54Zm-7.58,1.24c1.25-.23,2.51-.45,3.79-.66l.25,1.57c-1.26.2-2.52.42-3.75.64ZM199,83.48c1.24-.31,2.49-.59,3.76-.86l.33,1.55c-1.26.26-2.49.54-3.7.84Zm-7.4,2.18c1.19-.43,2.42-.82,3.68-1.18l.44,1.51c-1.23.36-2.43.75-3.6,1.16Zm147.05-.48c.85,1,1.68,2.09,2.49,3.17l-1.27.94c-.79-1.05-1.6-2.09-2.44-3.1ZM184.51,88.77c1.12-.61,2.29-1.17,3.51-1.7l.63,1.46c-1.18.5-2.31,1-3.39,1.63Zm-6.43,4.43a31.24,31.24,0,0,1,3.09-2.41l.89,1.3a29.23,29.23,0,0,0-2.93,2.29ZM343.5,91.65q1.15,1.72,2.13,3.45l-1.37.78q-1-1.66-2.07-3.36Zm-169.35,6c.37-.54.77-1.06,1.2-1.57l1.21,1c-.39.47-.76,1-1.12,1.47s-.8,1.11-1.22,1.64l-1.24-1c.41-.5.79-1,1.17-1.56ZM347.51,98.7a39.54,39.54,0,0,1,1.54,3.76l-1.49.52a36.29,36.29,0,0,0-1.48-3.6Zm-180,6a37.61,37.61,0,0,0,2.9-2.6l1.12,1.12a37,37,0,0,1-3,2.7Zm182.66,1.73c.14.68.25,1.36.34,2a14.76,14.76,0,0,1,.09,2.1l-1.58-.06a11.34,11.34,0,0,0-.08-1.84c-.08-.64-.19-1.27-.32-1.89ZM161,109c1.15-.64,2.26-1.33,3.35-2l.87,1.31c-1.11.75-2.26,1.45-3.44,2.11Zm-7.06,3.47c1.2-.52,2.4-1.07,3.58-1.65l.7,1.43c-1.2.58-2.42,1.14-3.65,1.67Zm-7.35,3c1.24-.47,2.47-.94,3.7-1.43l.58,1.47c-1.23.49-2.47,1-3.72,1.45Zm203.15-.85a16.15,16.15,0,0,1-2,3.63l-1.29-.92a14.61,14.61,0,0,0,1.78-3.27Zm-207.1,2.33.22-.09.55,1.49-.22.08-3.51,1.31-.56-1.48,3.52-1.31Zm-10.94,4.26c1.22-.52,2.46-1,3.7-1.52l.58,1.47q-1.84.74-3.66,1.5Zm213.41.12a33,33,0,0,1-3,2.64l-1-1.25a32.76,32.76,0,0,0,2.88-2.51Zm-220.65,3.35c1.17-.64,2.36-1.24,3.58-1.82l.68,1.43c-1.19.56-2.36,1.16-3.51,1.78Zm214.37,1.6c-1.07.7-2.2,1.39-3.4,2.07l-.78-1.37c1.17-.67,2.27-1.34,3.32-2ZM117.65,129c1.08-.81,2.18-1.58,3.33-2.3l.84,1.34c-1.1.7-2.18,1.44-3.22,2.22Zm214.29,1.23c-1.17.6-2.36,1.18-3.56,1.74l-.67-1.43c1.18-.55,2.35-1.12,3.51-1.72Zm-220.25,4.23a38.72,38.72,0,0,1,2.85-2.88l1.06,1.17c-.95.87-1.87,1.79-2.74,2.76Zm213.09-.87c-1.19.52-2.41,1-3.65,1.54l-.6-1.47c1.23-.5,2.44-1,3.62-1.52Zm-7.31,3c-1.21.46-2.43.93-3.68,1.39l-.55-1.49,3.67-1.38ZM107,141a39.79,39.79,0,0,1,2.19-3.43l1.28.92a39,39,0,0,0-2.1,3.29Zm203.12-1.74-3.73,1.3-.51-1.5,3.71-1.29Zm-7.45,2.56-3.74,1.23-.49-1.5,3.73-1.23Zm-7.49,2.44-3.76,1.19L290.9,144l3.74-1.19ZM103.7,148.43a40.07,40.07,0,0,1,1.44-3.78l1.45.63c-.51,1.16-1,2.37-1.4,3.64Zm183.92-1.78-3.76,1.17-.47-1.51,3.76-1.16Zm-8.57,2.66-2.7.84-.47-1.51,2.72-.84,1-.32.47,1.51Zm-6.46,2-3.75,1.17-.47-1.51,3.76-1.17Zm-7.5,2.36-3.74,1.19-.49-1.51,3.76-1.2Zm-162.93.65c.14-.68.28-1.35.44-2l1.53.37c-.15.63-.29,1.28-.42,1.94s-.26,1.3-.37,2l-1.56-.29c.12-.66.24-1.31.37-2Zm155.46,1.75c-1.25.41-2.5.82-3.73,1.24l-.5-1.5,3.74-1.25Zm-7.45,2.5-3.7,1.29-.53-1.49,3.71-1.3Zm-7.39,2.63-3.68,1.38-.57-1.47,3.7-1.4Zm-142.09,3.06c.13-1.32.28-2.65.46-4l1.57.22c-.18,1.32-.33,2.62-.46,3.92ZM235.45,164c-1.22.49-2.42,1-3.6,1.49l-.63-1.45c1.2-.51,2.41-1,3.64-1.51Zm-7.2,3.06c-1.21.55-2.39,1.11-3.55,1.67l-.69-1.42c1.17-.57,2.37-1.13,3.59-1.68Zm-128,5.2c0-1.32,0-2.66.11-4l1.58.08c-.06,1.31-.1,2.63-.1,3.94Zm120.93-1.75c-.58.3-1.14.61-1.69.91s-1.15.65-1.71,1l-.8-1.37,1.74-1c.57-.32,1.14-.63,1.72-.93Zm-6.69,3.92c-1.1.72-2.17,1.45-3.2,2.2l-.93-1.28c1-.76,2.14-1.51,3.26-2.24Zm-113.88,5.87c-.12-1.33-.21-2.66-.27-4l1.58-.07c.06,1.33.14,2.65.27,3.94ZM208.25,179c-1,.81-2,1.65-3,2.5l-1-1.18c1-.86,2-1.71,3-2.55Zm-5.81,5.14c-.93.92-1.84,1.85-2.71,2.78l-1.16-1.08c.89-1,1.81-1.89,2.77-2.83ZM101.8,188.28c-.26-1.3-.48-2.62-.68-4l1.57-.22c.19,1.31.41,2.61.66,3.89Zm95.34,1.54c-.85,1-1.67,2-2.46,3l-1.25-1c.82-1,1.65-2.06,2.5-3.06Zm-93.34,6.26c-.4-1.26-.77-2.55-1.1-3.87l1.53-.39c.33,1.28.69,2.55,1.08,3.79Zm88.53-.14c-.77,1.07-1.51,2.13-2.24,3.19l-1.31-.88c.73-1.08,1.49-2.16,2.27-3.24Zm-85.64,7.67c-.55-1.22-1.07-2.46-1.55-3.72l1.47-.57c.48,1.24,1,2.45,1.52,3.64ZM188,202.39c-.71,1.11-1.39,2.22-2.06,3.32l-1.35-.82c.67-1.11,1.37-2.22,2.08-3.35Zm-77.47,8.34c-.71-1.14-1.38-2.31-2-3.5l1.4-.75c.62,1.17,1.27,2.3,2,3.41Zm73.41-1.66c-.67,1.14-1.33,2.27-2,3.38l-1.37-.8,2-3.39Zm-68.72,8.22c-.86-1-1.67-2.1-2.46-3.2l1.29-.92c.76,1.07,1.56,2.11,2.39,3.12ZM180,215.84c-.67,1.14-1.34,2.27-2,3.39l-1.35-.82c.66-1.09,1.33-2.21,2-3.36Zm-59.23,7.32c-1-.91-2-1.86-2.88-2.84l1.15-1.09c.9,1,1.83,1.87,2.8,2.76Zm55.11-.59c-.72,1.11-1.47,2.2-2.25,3.26l-1.28-.93c.75-1,1.48-2.08,2.21-3.19Zm-48.77,5.59c-1.12-.76-2.21-1.55-3.26-2.39l1-1.24c1,.81,2.08,1.59,3.16,2.32Zm44,.78a33.11,33.11,0,0,1-2.82,2.86l-1.06-1.18a31.39,31.39,0,0,0,2.69-2.72Zm-37,3.26c-1.22-.59-2.41-1.22-3.58-1.89l.79-1.37c1.14.65,2.29,1.26,3.47,1.83Zm7.5,3c-1.29-.41-2.56-.87-3.8-1.36l.58-1.47c1.21.48,2.45.92,3.7,1.32Zm23.48-.94a20,20,0,0,1-3.64,1.82l-.55-1.48a18.78,18.78,0,0,0,3.36-1.67Zm-17.61,2.47q-1-.21-2-.45l.37-1.53c.64.15,1.28.3,1.93.43s1.29.25,1.91.34l-.23,1.56c-.65-.1-1.32-.22-2-.36Zm10,.4a24,24,0,0,1-4.06.29l0-1.59a20.84,20.84,0,0,0,3.78-.26Z"/><path  class="cls-3" d="M280.77,53.42c-50.2-35.54-101.77,29.91-132,42.73s-39.24-33.72-69-2.5-22.89,83.07,4.14,106.83,51.12,2.92,104.78,4.81c50.4,1.77,70.06,53.51,125.81,16.13S331,89,280.77,53.42Z"/><path  class="cls-4" d="M92,76.42H63.53a6.32,6.32,0,0,0-6.33,6.32h0v38A6.34,6.34,0,0,0,63.52,127H92a6.34,6.34,0,0,0,6.33-6.33h0V82.75A6.32,6.32,0,0,0,92,76.42Z"/><path  class="cls-2" d="M82,122.49l-3.56,2.25v-3.28H54v-49H88a5.59,5.59,0,0,1,5.5,4.8h.06v38.69l0,.93h-.06A5.56,5.56,0,0,1,88,121.46H85.57v3.28Zm6-2.33a4.27,4.27,0,0,0,4.22-3.74l0-.33c0-.06,0-.12,0-.18A4.25,4.25,0,0,0,88,111.66H55.34v3.87h33v1.3h-2.8v3.32Zm-32.66,0H78.46v-3.32H55.34Zm36.91-7.83V77.89a4.3,4.3,0,0,0-3.23-4v36.59a5.62,5.62,0,0,1,3.23,1.89Zm-36.91-2H87.71V73.73H55.34ZM64,91.49v-1.3H79.07v1.3Zm1.76-4.75v-1.3H77.3v1.3Z"/><path  class="cls-5" d="M230.21,151.51S220,187.94,209.83,189.4s4.36-53.92,5.82-59.27,14.56,21.38,14.56,21.38Z"/><path  class="cls-2" d="M201.46,55.27c-4.29-17.22-4.38-19.63-1.3-26.53S214.9,18.11,224,23.15s12.18,2.52,17,.5,15.25-8.57,26,1,4.44,25.05,2.29,33.88,2.38,11.58,18.3,12.26,27.58,8.91,33.33,29,.16,52.68-45,41-68.23,5.18-86.15-24.62S205.75,72.48,201.46,55.27Z"/><path  class="cls-6" d="M247.44,90.9C236.58,88.47,227,98.71,223,104.21s-12.35,27.38-12.35,27.38,8.7,16.74,19.27,24.73c10.48.24,24.8-26.9,24.8-26.9S258.31,93.33,247.44,90.9Z"/><path  class="cls-4" d="M218.56,67s-3.88,9.24-3.4,12.15,4.37,11.66,4.37,11.66-18,62.93-18.93,72.86,0,19.42,4.37,24.29,5.77,3.21,10.19-1,8.33-57.73,9.71-77.24,3.32-24.58,3.32-24.58-4.78-4.57-6.72-5.54S219.05,68.44,218.56,67Z"/><path  class="cls-4" d="M224.87,66c1.46,1,14.56,13.6,14.08,28.18s-1.45,14.57-1,19.43-1.46,19.91,9.71,28.17c3.14,2.33,7.76-24.29,12.13-37.89,3.27-10.18,9.71-10.2-4.37-22.83S239,56.29,238,50,224.87,66,224.87,66Z"/><path  class="cls-7" d="M292.63,113.86c16.61,33.65,28.75,77.21,28.75,77.21H242.83c-1.56-.92-12.43-31.92-13.56-58S239,95.45,239,95.45s-1.91,19.9,2.52,19,11.3-15.57,16-22S276,80.2,292.63,113.86Z"/><path  class="cls-4" d="M287.37,129.23,262.73,187s-2.42,5.83-16.5,1.45c-16.56-5.14-69.11-17.32-69.11-17.32s-1.75,2.75-5.15,7.12-11.17.73-11.17.73L156,182.59s-4.48,2.67-6.55,2.67c-1.46,0,14.61-14.23,16.26-15.3s16.2-5.42,17.71-5.58,64.27,6.73,64.27,6.73l16.59-53.06Z"/><path  class="cls-6" d="M131.71,164.61a1.93,1.93,0,0,0,.9,1.19,1.76,1.76,0,0,0,.71.24,2,2,0,0,0,.76,0l8-2.09a2,2,0,0,0,1.39-2.37L113.08,45.46a2,2,0,0,0-2.37-1.39l-8,2.09a1.94,1.94,0,0,0-1.39,2.37h0Z"/><path  class="cls-2" d="M134.18,166.51a2.2,2.2,0,0,0,.67-.08l7.8-2.77a10.51,10.51,0,0,0-3.71,0,32.18,32.18,0,0,0-3.73.91,1.35,1.35,0,0,1-.49,0,1.31,1.31,0,0,1-.47-.16,1.46,1.46,0,0,1-.37-.33,1.24,1.24,0,0,1-.21-.45s-27-101.86-28.43-107a22.57,22.57,0,0,0-3.86-8l30.27,115.9a2.62,2.62,0,0,0,2.53,2Z"/><path  class="cls-2" d="M97.79,191.07h30.64v-2.7H98c-.71-.14-5.57-1.38-5.57-8.22,0-4.59,14.95-44.71,25.58-71.65L117,104.6c-.07.17-7.29,18.29-13.85,35.73-13.37,35.5-13.37,38.75-13.37,39.82,0,5,2.13,7.67,3.92,9.06a9.33,9.33,0,0,0,4,1.84Z"/><path  class="cls-2" d="M137.19,191.07v-1.62c0-1.07.15-1.08,1.22-1.08h48.05c1.07,0,3.35,0,3.35,1.08v1.62Z"/><path  class="cls-8" d="M238,50a46.67,46.67,0,0,0,7.66,20A66.61,66.61,0,0,1,238.74,99c.08-1.41.15-3,.2-4.84C239.43,79.62,226.33,67,224.87,66c0,0,12.13-22.35,13.11-16Z"/><path  class="cls-8" d="M216.37,72.91q1-3,2.2-5.93c.48,1.46,1,11.66,2.91,12.63s6.4,4.08,6.71,4.9-.45,1.09-1.44,7.48a34.88,34.88,0,0,1-9.39-12,34.32,34.32,0,0,1-1-7.12Z"/><path  class="cls-4" d="M213.3,56c-.47,10.45,4.29,21.64,9.63,26s10.1-3,17-11.17c5.34-6.31,10.32-17.21,7.28-18.94-6.8-3.89-5.34,4.37-6.31,5.34-2.43,2.43-1.39-13.08-1.39-13.08s-12.37,7.65-19.63-9.53C219.88,34.66,213.78,45.57,213.3,56Z"/><path  class="cls-9" d="M214.61,64.29a3.56,3.56,0,0,0,.86-.11c2.5-.66,3.76-4.2,2.8-7.87s-3.8-6.13-6.31-5.47a4.13,4.13,0,0,0-2.73,2.86A9.36,9.36,0,0,0,211.68,63a4.5,4.5,0,0,0,2.94,1.26ZM212.8,51.41c2,0,4,2.1,4.8,5.07.88,3.32-.16,6.47-2.31,7a3.47,3.47,0,0,1-3.17-1,8.75,8.75,0,0,1-2.27-8.6,3.47,3.47,0,0,1,2.26-2.43,2.72,2.72,0,0,1,.69-.09Zm12.49,12.88a3.48,3.48,0,0,0,.85-.11,4.12,4.12,0,0,0,2.73-2.87A9.37,9.37,0,0,0,226.41,52a3.77,3.77,0,0,0-5.33-.31,3.84,3.84,0,0,0-1.19,2A9.38,9.38,0,0,0,222.35,63,4.52,4.52,0,0,0,225.29,64.29Zm-1.81-12.88A3.81,3.81,0,0,1,226,52.49a8.68,8.68,0,0,1,2.27,8.6,3.11,3.11,0,0,1-3.64,2.48,3.06,3.06,0,0,1-1.79-1,8.7,8.7,0,0,1-2.27-8.61,3.44,3.44,0,0,1,2.26-2.42,2.59,2.59,0,0,1,.68-.09Z"/><path  class="cls-4" d="M213.91,64.21A4.92,4.92,0,0,1,211.68,63a9.37,9.37,0,0,1-2.46-9.33A4.09,4.09,0,0,1,212,50.84l.18.65a3.49,3.49,0,0,0-2.27,2.43,8.68,8.68,0,0,0,2.27,8.6,4.45,4.45,0,0,0,1.65,1Z"/><path  class="cls-9" d="M227.19,56l.23.64L241,51.76l-.23-.64Z"/><path  class="cls-8" d="M263.67,184.91l-2,4.43s-2.48,5.63-16.55,1.26c-15.47-4.8-61.95-18.08-68-19.47,2.8-1.44,47.56,11.61,63.82,15.07s17.68-.33,22.71-1.29Z"/><path id="Path_1471-2" class="cls-10" d="M188.68,180.94l4.37-18-2.36-.58-4.37,18Z"/><path id="Path_1472-2" class="cls-11" d="M194.53,181.78,197,163.33l-2.4-.32-2.43,18.46Z"/><path  class="cls-6" d="M252,129.63s3.26-29,9.31-36.51,14.31-6.51,25.68,9.1c9.81,13.47,9.68,34.73,9,46.41-31.95-3.77-44-19-44-19Z"/><path  class="cls-12" d="M243.43,67.33A2.37,2.37,0,1,0,241.05,65,2.37,2.37,0,0,0,243.43,67.33Z"/><path  class="cls-4" d="M212.13,51.49a3,3,0,0,1,1.7.07c.13-.63.1-.62.1-.62a3.38,3.38,0,0,0-2-.1C211.65,51.06,212.13,51.49,212.13,51.49Z"/><path  class="cls-2" d="M204.27,219.54a1.59,1.59,0,1,0-1.58-1.59,1.59,1.59,0,0,0,1.58,1.59Z"/><path  class="cls-2" d="M213.76,219.54a1.59,1.59,0,1,0-1.59-1.59,1.59,1.59,0,0,0,1.59,1.59Z"/><path  class="cls-2" d="M223.24,219.54a1.59,1.59,0,1,0-1.58-1.59,1.58,1.58,0,0,0,1.58,1.59Z"/><path  class="cls-2" d="M232.73,219.54a1.59,1.59,0,1,0-1.58-1.59,1.59,1.59,0,0,0,1.58,1.59Z"/><path  class="cls-2" d="M242.22,219.54a1.59,1.59,0,1,0-1.58-1.59,1.59,1.59,0,0,0,1.58,1.59Z"/><path  class="cls-2" d="M251.71,219.54a1.59,1.59,0,1,0-1.58-1.59,1.59,1.59,0,0,0,1.58,1.59Z"/><path  class="cls-2" d="M261.2,219.54a1.59,1.59,0,1,0-1.58-1.59,1.59,1.59,0,0,0,1.58,1.59Z"/><path  class="cls-2" d="M270.68,219.54A1.59,1.59,0,1,0,269.1,218a1.58,1.58,0,0,0,1.58,1.59Z"/><path  class="cls-2" d="M280.17,219.54a1.59,1.59,0,1,0-1.58-1.59,1.58,1.58,0,0,0,1.58,1.59Z"/><path  class="cls-2" d="M204.27,229a1.58,1.58,0,1,0-1.58-1.58,1.58,1.58,0,0,0,1.58,1.58Z"/><path  class="cls-2" d="M213.76,229a1.58,1.58,0,1,0-1.59-1.58,1.58,1.58,0,0,0,1.59,1.58Z"/><path  class="cls-2" d="M223.24,229a1.58,1.58,0,1,0-1.58-1.58,1.57,1.57,0,0,0,1.58,1.58Z"/><path  class="cls-2" d="M232.73,229a1.58,1.58,0,1,0-1.58-1.58,1.58,1.58,0,0,0,1.58,1.58Z"/><path  class="cls-2" d="M242.22,229a1.58,1.58,0,1,0-1.58-1.58,1.58,1.58,0,0,0,1.58,1.58Z"/><path  class="cls-2" d="M251.71,229a1.58,1.58,0,1,0-1.58-1.58,1.58,1.58,0,0,0,1.58,1.58Z"/><path  class="cls-2" d="M261.2,229a1.58,1.58,0,1,0-1.58-1.58A1.58,1.58,0,0,0,261.2,229Z"/><path  class="cls-2" d="M270.68,229a1.58,1.58,0,1,0-1.58-1.58,1.57,1.57,0,0,0,1.58,1.58Z"/><path  class="cls-2" d="M280.17,229a1.58,1.58,0,1,0-1.58-1.58,1.57,1.57,0,0,0,1.58,1.58Z"/><path  class="cls-2" d="M204.27,238.51a1.58,1.58,0,1,0-1.58-1.58,1.58,1.58,0,0,0,1.58,1.58Z"/><path  class="cls-2" d="M213.76,238.51a1.58,1.58,0,1,0-1.59-1.58,1.58,1.58,0,0,0,1.59,1.58Z"/><path  class="cls-2" d="M223.24,238.51a1.58,1.58,0,1,0-1.58-1.58,1.58,1.58,0,0,0,1.58,1.58Z"/><path  class="cls-2" d="M232.73,238.51a1.58,1.58,0,1,0-1.58-1.58,1.58,1.58,0,0,0,1.58,1.58Z"/><path  class="cls-2" d="M242.22,238.51a1.58,1.58,0,1,0-1.58-1.58,1.58,1.58,0,0,0,1.58,1.58Z"/><path  class="cls-2" d="M251.71,238.51a1.58,1.58,0,1,0-1.58-1.58,1.58,1.58,0,0,0,1.58,1.58Z"/><path  class="cls-2" d="M261.2,238.51a1.58,1.58,0,1,0-1.58-1.58,1.58,1.58,0,0,0,1.58,1.58Z"/><path  class="cls-2" d="M270.68,238.51a1.58,1.58,0,1,0-1.58-1.58,1.58,1.58,0,0,0,1.58,1.58Z"/><path  class="cls-2" d="M280.17,238.51a1.58,1.58,0,1,0-1.58-1.58,1.58,1.58,0,0,0,1.58,1.58Z"/><path  class="cls-2" d="M204.27,248a1.58,1.58,0,1,0-1.58-1.58,1.58,1.58,0,0,0,1.58,1.58Z"/><path  class="cls-2" d="M213.76,248a1.58,1.58,0,1,0-1.59-1.58,1.58,1.58,0,0,0,1.59,1.58Z"/><path  class="cls-2" d="M223.24,248a1.58,1.58,0,1,0-1.58-1.58,1.58,1.58,0,0,0,1.58,1.58Z"/><path  class="cls-2" d="M232.73,248a1.58,1.58,0,1,0-1.58-1.58,1.58,1.58,0,0,0,1.58,1.58Z"/><path  class="cls-2" d="M242.22,248a1.58,1.58,0,1,0-1.58-1.58,1.58,1.58,0,0,0,1.58,1.58Z"/><path  class="cls-2" d="M251.71,248a1.58,1.58,0,1,0-1.58-1.58,1.58,1.58,0,0,0,1.58,1.58Z"/><path  class="cls-2" d="M261.2,248a1.58,1.58,0,1,0-1.58-1.58A1.58,1.58,0,0,0,261.2,248Z"/><path  class="cls-2" d="M270.68,248a1.58,1.58,0,1,0-1.58-1.58,1.58,1.58,0,0,0,1.58,1.58Z"/><path  class="cls-2" d="M280.17,248a1.58,1.58,0,1,0-1.58-1.58,1.58,1.58,0,0,0,1.58,1.58Z"/><path  class="cls-2" d="M107.41,16l6.33,6.33L120.06,16l6.33,6.33L132.71,16,139,22.33l5.76-5.77,1.12,1.12L139,24.56l-6.33-6.32-6.33,6.32-6.32-6.32-6.33,6.32-6.32-6.32L101.64,24l-1.12-1.11Z"/><path  class="cls-4" d="M175.8,66.14h-38a3.16,3.16,0,0,0-3.16,3.16h0v31.63a3.15,3.15,0,0,0,3.16,3.16h38a3.16,3.16,0,0,0,3.17-3.16h0V69.3a3.17,3.17,0,0,0-3.17-3.16Z"/><path  class="cls-2" d="M156.3,101.17h1a2.28,2.28,0,0,1,2.27-2.28h14.6V71.67h-14.6a3.26,3.26,0,0,0-2.8,1.6,3.24,3.24,0,0,0-2.8-1.6H139.43V98.89H154a2.27,2.27,0,0,1,2.27,2.28ZM154,72.64a2.28,2.28,0,0,1,2.28,2.28V98.85a3.21,3.21,0,0,0-2.28-.93H140.4V72.64Zm19.23,25.28H159.62a3.29,3.29,0,0,0-2.28.93V74.92a2.28,2.28,0,0,1,2.28-2.27h13.62ZM143.14,94.4H154.2v-1H143.14Zm16.72,0h11.07v-1H159.87Zm-16.72-3.52H154.2v-1H143.14Zm16.72,0h11.07v-1H159.87Zm-16.72-3.53H154.2v-1H143.14Zm16.72,0h11.07v-1H159.87Zm-16.72-3.52H154.2v-1H143.14Zm16.72,0h11.07v-1H159.87Zm-16.72-3.52H154.2v-1H143.14Zm16.72,0h11.07v-1H159.87Zm4.49-3.58h6.57v-1h-6.57Z"/><path  class="cls-2" d="M291.93,16.51a9.62,9.62,0,0,1,3.78,0l-.31,1.55a8,8,0,0,0-3.16,0ZM299.2,18a10,10,0,0,1,2.67,2.67l-1.31.89a8.23,8.23,0,0,0-2.24-2.24Zm-13.44,2.67A9.69,9.69,0,0,1,288.43,18l.88,1.31a8.06,8.06,0,0,0-2.24,2.23Zm17.55,3.49a9.62,9.62,0,0,1,0,3.78l-1.55-.3a8.05,8.05,0,0,0,0-3.17ZM284.13,26a10.08,10.08,0,0,1,.18-1.89l1.55.31a8.4,8.4,0,0,0,0,3.16l-1.55.31A9.92,9.92,0,0,1,284.13,26Zm17.74,5.39a9.87,9.87,0,0,1-2.68,2.67l-.88-1.31a8.23,8.23,0,0,0,2.24-2.24Zm-13.44,2.67a9.77,9.77,0,0,1-2.68-2.68l1.32-.88a8.06,8.06,0,0,0,2.23,2.24Zm7.27,1.44a9.62,9.62,0,0,1-3.78,0l.31-1.55a8,8,0,0,0,3.16,0Z"/></svg>